<svg width="671" height="256" viewBox="0 0 671 256" fill="none" xmlns="http://www.w3.org/2000/svg">
<path d="M239.184 104.758C242.086 96.1379 243.09 87.0063 242.128 77.9732C241.166 68.9401 238.262 60.2134 233.608 52.3761C226.708 40.53 216.174 31.1512 203.522 25.5917C190.87 20.0323 176.756 18.5795 163.214 21.4429C155.52 13.0009 145.709 6.70448 134.768 3.18599C123.826 -0.332497 112.139 -0.949171 100.879 1.39791C89.6198 3.74498 79.1846 8.97317 70.6217 16.5574C62.0588 24.1416 55.6697 33.8148 52.0962 44.6055C43.0741 46.4304 34.5507 50.1339 27.0958 55.4683C19.6408 60.8027 13.426 67.6453 8.86669 75.5387C1.8923 87.3651 -1.08851 101.073 0.355208 114.68C1.79893 128.288 7.59237 141.09 16.898 151.236C13.9855 159.851 12.9718 168.981 13.9247 178.015C14.8777 187.048 17.7753 195.777 22.4237 203.616C29.3319 215.467 39.876 224.848 52.5364 230.407C65.1969 235.966 79.3199 237.417 92.87 234.551C98.9825 241.34 106.493 246.766 114.901 250.464C123.308 254.163 132.419 256.05 141.624 255.999C155.505 256.012 169.031 251.673 180.249 243.61C191.467 235.546 199.798 224.175 204.038 211.137C213.059 209.309 221.581 205.604 229.036 200.27C236.49 194.936 242.706 188.094 247.268 180.203C254.16 168.394 257.089 154.738 255.637 141.187C254.185 127.637 248.427 114.885 239.184 104.758ZM141.624 239.244C130.256 239.262 119.244 235.331 110.52 228.142L112.054 227.284L163.725 197.864C165.011 197.12 166.079 196.059 166.823 194.784C167.568 193.51 167.963 192.067 167.971 190.597V118.736L189.815 131.201C189.923 131.255 190.016 131.334 190.088 131.43C190.159 131.527 190.207 131.638 190.226 131.756V191.304C190.198 204.01 185.069 216.188 175.96 225.173C166.852 234.158 154.506 239.217 141.624 239.244ZM37.1572 195.24C31.456 185.529 29.409 174.146 31.3763 163.094L32.9118 164.002L84.6332 193.423C85.913 194.164 87.37 194.554 88.8538 194.554C90.3376 194.554 91.7946 194.164 93.0743 193.423L156.256 157.493V182.371C156.25 182.5 156.215 182.626 156.153 182.74C156.09 182.854 156.003 182.952 155.897 183.027L103.561 212.801C92.3923 219.148 79.1264 220.863 66.6763 217.571C54.2262 214.278 43.6095 206.247 37.1572 195.24ZM23.5494 84.2192C29.2902 74.4461 38.3514 66.9919 49.129 63.1761V123.733C49.1095 125.196 49.4885 126.637 50.2263 127.906C50.9641 129.176 52.0337 130.226 53.3236 130.949L116.198 166.728L94.3536 179.192C94.2354 179.254 94.1036 179.286 93.9697 179.286C93.8359 179.286 93.704 179.254 93.5858 179.192L41.3529 149.469C30.2048 143.095 22.0717 132.623 18.7348 120.346C15.3979 108.069 17.1292 94.9879 23.5494 83.9675V84.2192ZM203.015 125.348L139.936 89.2155L161.73 76.7995C161.848 76.7376 161.98 76.7052 162.114 76.7052C162.248 76.7052 162.379 76.7376 162.498 76.7995L214.731 106.573C222.717 111.119 229.228 117.812 233.503 125.87C237.777 133.929 239.64 143.021 238.873 152.085C238.106 161.148 234.741 169.81 229.171 177.058C223.601 184.306 216.055 189.841 207.415 193.018V132.461C207.37 131.001 206.94 129.577 206.169 128.33C205.397 127.082 204.311 126.055 203.015 125.348ZM224.758 93.1013L223.222 92.1925L171.604 62.5201C170.316 61.7747 168.85 61.3818 167.357 61.3818C165.864 61.3818 164.398 61.7747 163.111 62.5201L99.9821 98.4496V73.5718C99.9686 73.4453 99.9901 73.3176 100.044 73.2021C100.098 73.0866 100.183 72.9877 100.289 72.9158L152.522 43.1921C160.528 38.643 169.681 36.4363 178.911 36.8301C188.141 37.2239 197.067 40.202 204.644 45.416C212.221 50.6299 218.137 57.8643 221.699 66.2729C225.261 74.6816 226.323 83.9169 224.759 92.8987L224.758 93.1013ZM88.0601 137.205L66.2166 124.791C66.1073 124.726 66.0139 124.638 65.9429 124.534C65.8718 124.429 65.825 124.31 65.8057 124.186V64.791C65.8177 55.6793 68.4592 46.7592 73.4212 39.0737C78.3832 31.3883 85.4608 25.255 93.8263 21.391C102.192 17.527 111.5 16.0921 120.662 17.2539C129.823 18.4156 138.461 22.1262 145.564 27.9517L144.028 28.8103L92.3585 58.2289C91.0725 58.9729 90.0048 60.034 89.2603 61.3082C88.5157 62.5823 88.12 64.0255 88.112 65.4961L88.0601 137.205ZM99.9291 111.974L128.066 95.976L156.256 111.974V143.967L128.169 159.964L99.981 143.967L99.9291 111.974Z" fill="black"/>
<path d="M351.584 129.48C351.584 143.048 348.085 153.885 341.088 161.992C334.176 170.013 324.789 174.024 312.928 174.024C301.237 174.024 291.851 169.971 284.768 161.864C277.685 153.757 274.144 142.963 274.144 129.48C274.144 115.912 277.6 105.117 284.512 97.096C291.509 89.0747 300.939 85.064 312.8 85.064C324.917 85.064 334.389 89.0747 341.216 97.096C348.128 105.032 351.584 115.827 351.584 129.48ZM285.024 129.48C285.024 140.147 287.541 148.595 292.576 154.824C297.696 161.053 304.48 164.168 312.928 164.168C321.717 164.168 328.501 161.096 333.28 154.952C338.144 148.808 340.576 140.317 340.576 129.48C340.576 118.643 338.144 110.152 333.28 104.008C328.416 97.864 321.589 94.792 312.8 94.792C304.096 94.792 297.269 97.9067 292.32 104.136C287.456 110.28 285.024 118.728 285.024 129.48ZM376.953 198.216H366.969V108.104H376.953V117.96C381.476 110.707 388.174 107.08 397.049 107.08C405.668 107.08 412.409 110.237 417.273 116.552C422.222 122.781 424.697 130.589 424.697 139.976C424.697 149.96 422.094 158.152 416.889 164.552C411.769 170.867 405.07 174.024 396.793 174.024C388.26 174.024 381.646 170.397 376.953 163.144V198.216ZM376.953 140.616C376.953 148.893 378.873 154.995 382.713 158.92C386.553 162.845 390.82 164.808 395.513 164.808C400.974 164.808 405.454 162.675 408.953 158.408C412.452 154.056 414.201 147.912 414.201 139.976C414.201 132.893 412.494 127.176 409.081 122.824C405.668 118.472 401.358 116.296 396.153 116.296C390.948 116.296 386.425 118.216 382.585 122.056C378.83 125.811 376.953 131.997 376.953 140.616ZM486.954 169.672C481.919 172.317 475.775 173.64 468.522 173.64C458.709 173.64 450.773 170.653 444.714 164.68C438.741 158.621 435.754 150.643 435.754 140.744C435.754 130.419 438.442 122.269 443.818 116.296C449.194 110.323 456.106 107.336 464.554 107.336C472.661 107.336 479.103 109.939 483.882 115.144C488.661 120.349 491.05 127.731 491.05 137.288C491.05 140.019 490.837 142.536 490.41 144.84H446.122C446.89 151.24 449.322 156.147 453.418 159.56C457.514 162.973 462.89 164.68 469.546 164.68C476.799 164.68 482.602 163.187 486.954 160.2V169.672ZM464.554 116.168C459.69 116.168 455.551 117.917 452.138 121.416C448.725 124.915 446.719 129.907 446.122 136.392H480.938V133.832C480.938 128.456 479.487 124.189 476.586 121.032C473.685 117.789 469.674 116.168 464.554 116.168ZM557.669 173H547.557V131.016C547.557 126.237 546.32 122.611 543.845 120.136C541.456 117.576 538.298 116.296 534.373 116.296C529.509 116.296 525.285 118.173 521.701 121.928C518.202 125.683 516.453 130.888 516.453 137.544V173H506.469V108.104H516.453V119.368C520.293 111.261 527.12 107.208 536.933 107.208C543.248 107.208 548.282 109.128 552.037 112.968C555.792 116.808 557.669 121.928 557.669 128.328V173ZM594.154 136.648L592.49 141.512H623.082L621.418 136.52L607.978 95.048C606.954 98.7173 602.346 112.584 594.154 136.648ZM581.866 173H570.73L600.81 86.728H615.146L644.714 173H633.578L626.026 150.344H589.546L581.866 173ZM670.242 173H659.874V86.728H670.242V173Z" fill="black"/>
<path d="M341.088 161.992L340.331 161.339L340.33 161.339L341.088 161.992ZM284.768 161.864L285.521 161.206L285.521 161.206L284.768 161.864ZM284.512 97.096L283.758 96.4386L283.754 96.4432L284.512 97.096ZM341.216 97.096L340.454 97.7442L340.462 97.7528L341.216 97.096ZM292.576 154.824L291.798 155.453L291.803 155.459L292.576 154.824ZM333.28 154.952L332.496 154.331L332.491 154.338L333.28 154.952ZM333.28 104.008L334.064 103.387L334.064 103.387L333.28 104.008ZM292.32 104.136L291.537 103.514L291.536 103.515L292.32 104.136ZM350.584 129.48C350.584 142.874 347.133 153.458 340.331 161.339L341.845 162.645C349.037 154.313 352.584 143.222 352.584 129.48H350.584ZM340.33 161.339C333.633 169.112 324.538 173.024 312.928 173.024V175.024C325.041 175.024 334.719 170.915 341.846 162.645L340.33 161.339ZM312.928 173.024C301.498 173.024 292.396 169.075 285.521 161.206L284.015 162.522C291.305 170.866 300.977 175.024 312.928 175.024V173.024ZM285.521 161.206C278.635 153.324 275.144 142.784 275.144 129.48H273.144C273.144 143.141 276.736 154.191 284.015 162.522L285.521 161.206ZM275.144 129.48C275.144 116.083 278.554 105.542 285.27 97.7488L283.754 96.4432C276.646 104.692 273.144 115.741 273.144 129.48H275.144ZM285.266 97.7534C292.05 89.9761 301.191 86.064 312.8 86.064V84.064C300.687 84.064 290.969 88.1732 283.758 96.4386L285.266 97.7534ZM312.8 86.064C324.673 86.064 333.847 89.9809 340.454 97.7441L341.978 96.4479C334.931 88.1684 325.161 84.064 312.8 84.064V86.064ZM340.462 97.7528C347.173 105.458 350.584 115.995 350.584 129.48H352.584C352.584 115.659 349.083 104.606 341.97 96.4392L340.462 97.7528ZM284.024 129.48C284.024 140.299 286.578 148.994 291.798 155.453L293.354 154.195C288.504 148.195 286.024 139.994 286.024 129.48H284.024ZM291.803 155.459C297.124 161.932 304.197 165.168 312.928 165.168V163.168C304.763 163.168 298.268 160.175 293.349 154.189L291.803 155.459ZM312.928 165.168C321.981 165.168 329.075 161.987 334.069 155.566L332.491 154.338C327.928 160.205 321.454 163.168 312.928 163.168V165.168ZM334.064 155.573C339.113 149.195 341.576 140.458 341.576 129.48H339.576C339.576 140.177 337.175 148.421 332.496 154.331L334.064 155.573ZM341.576 129.48C341.576 118.502 339.113 109.765 334.064 103.387L332.496 104.629C337.175 110.539 339.576 118.783 339.576 129.48H341.576ZM334.064 103.387C328.986 96.9724 321.853 93.792 312.8 93.792V95.792C321.326 95.792 327.846 98.7556 332.496 104.629L334.064 103.387ZM312.8 93.792C303.824 93.792 296.696 97.0213 291.537 103.514L293.103 104.758C297.843 98.7921 304.368 95.792 312.8 95.792V93.792ZM291.536 103.515C286.488 109.892 284.024 118.586 284.024 129.48H286.024C286.024 118.87 288.424 110.668 293.104 104.757L291.536 103.515ZM376.953 198.216V199.216H377.953V198.216H376.953ZM366.969 198.216H365.969V199.216H366.969V198.216ZM366.969 108.104V107.104H365.969V108.104H366.969ZM376.953 108.104H377.953V107.104H376.953V108.104ZM376.953 117.96H375.953V121.454L377.802 118.489L376.953 117.96ZM417.273 116.552L416.481 117.162L416.485 117.168L416.49 117.174L417.273 116.552ZM416.889 164.552L416.113 163.921L416.112 163.922L416.889 164.552ZM376.953 163.144L377.793 162.601L375.953 159.758V163.144H376.953ZM382.713 158.92L383.428 158.221L383.428 158.221L382.713 158.92ZM408.953 158.408L409.726 159.042L409.732 159.035L408.953 158.408ZM409.081 122.824L408.294 123.441L408.294 123.441L409.081 122.824ZM382.585 122.056L381.878 121.349L381.878 121.349L382.585 122.056ZM376.953 197.216H366.969V199.216H376.953V197.216ZM367.969 198.216V108.104H365.969V198.216H367.969ZM366.969 109.104H376.953V107.104H366.969V109.104ZM375.953 108.104V117.96H377.953V108.104H375.953ZM377.802 118.489C382.133 111.542 388.503 108.08 397.049 108.08V106.08C387.845 106.08 380.818 109.871 376.104 117.431L377.802 118.489ZM397.049 108.08C405.387 108.08 411.823 111.116 416.481 117.162L418.065 115.942C412.995 109.359 405.949 106.08 397.049 106.08V108.08ZM416.49 117.174C421.275 123.196 423.697 130.773 423.697 139.976H425.697C425.697 130.406 423.17 122.367 418.056 115.93L416.49 117.174ZM423.697 139.976C423.697 149.78 421.145 157.735 416.113 163.921L417.665 165.183C423.044 158.569 425.697 150.14 425.697 139.976H423.697ZM416.112 163.922C411.186 169.998 404.775 173.024 396.793 173.024V175.024C405.365 175.024 412.352 171.736 417.666 165.182L416.112 163.922ZM396.793 173.024C388.604 173.024 382.304 169.574 377.793 162.601L376.113 163.687C380.988 171.221 387.915 175.024 396.793 175.024V173.024ZM375.953 163.144V198.216H377.953V163.144H375.953ZM375.953 140.616C375.953 149.024 377.901 155.431 381.998 159.619L383.428 158.221C379.845 154.558 377.953 148.762 377.953 140.616H375.953ZM381.998 159.619C385.992 163.702 390.505 165.808 395.513 165.808V163.808C391.134 163.808 387.114 161.989 383.428 158.221L381.998 159.619ZM395.513 165.808C401.277 165.808 406.04 163.538 409.726 159.042L408.18 157.774C404.869 161.812 400.671 163.808 395.513 163.808V165.808ZM409.732 159.035C413.423 154.443 415.201 148.046 415.201 139.976H413.201C413.201 147.778 411.48 153.669 408.174 157.781L409.732 159.035ZM415.201 139.976C415.201 132.733 413.454 126.779 409.868 122.207L408.294 123.441C411.535 127.573 413.201 133.054 413.201 139.976H415.201ZM409.868 122.207C406.279 117.631 401.687 115.296 396.153 115.296V117.296C401.03 117.296 405.057 119.313 408.294 123.441L409.868 122.207ZM396.153 115.296C390.67 115.296 385.896 117.33 381.878 121.349L383.292 122.763C386.954 119.102 391.225 117.296 396.153 117.296V115.296ZM381.878 121.349C377.848 125.379 375.953 131.89 375.953 140.616H377.953C377.953 132.104 379.813 126.242 383.292 122.763L381.878 121.349ZM486.954 169.672L487.419 170.557L487.954 170.276V169.672H486.954ZM444.714 164.68L444.002 165.382L444.007 165.387L444.012 165.392L444.714 164.68ZM443.818 116.296L443.075 115.627L443.075 115.627L443.818 116.296ZM483.882 115.144L484.619 114.468L484.619 114.468L483.882 115.144ZM490.41 144.84V145.84H491.242L491.393 145.022L490.41 144.84ZM446.122 144.84V143.84H444.995L445.129 144.959L446.122 144.84ZM453.418 159.56L452.778 160.328L452.778 160.328L453.418 159.56ZM486.954 160.2H487.954V158.301L486.388 159.375L486.954 160.2ZM452.138 121.416L451.422 120.718L451.422 120.718L452.138 121.416ZM446.122 136.392L445.126 136.3L445.026 137.392H446.122V136.392ZM480.938 136.392V137.392H481.938V136.392H480.938ZM476.586 121.032L475.841 121.699L475.85 121.709L476.586 121.032ZM486.489 168.787C481.632 171.339 475.657 172.64 468.522 172.64V174.64C475.894 174.64 482.207 173.296 487.419 170.557L486.489 168.787ZM468.522 172.64C458.928 172.64 451.259 169.728 445.416 163.968L444.012 165.392C450.287 171.578 458.489 174.64 468.522 174.64V172.64ZM445.426 163.978C439.667 158.137 436.754 150.426 436.754 140.744H434.754C434.754 150.859 437.814 159.106 444.002 165.382L445.426 163.978ZM436.754 140.744C436.754 130.593 439.393 122.707 444.561 116.965L443.075 115.627C437.491 121.832 434.754 130.244 434.754 140.744H436.754ZM444.561 116.965C449.737 111.214 456.373 108.336 464.554 108.336V106.336C455.839 106.336 448.651 109.431 443.075 115.627L444.561 116.965ZM464.554 108.336C472.426 108.336 478.585 110.852 483.145 115.82L484.619 114.468C479.622 109.025 472.895 106.336 464.554 106.336V108.336ZM483.145 115.82C487.702 120.784 490.05 127.892 490.05 137.288H492.05C492.05 127.57 489.619 119.914 484.619 114.468L483.145 115.82ZM490.05 137.288C490.05 139.967 489.841 142.423 489.427 144.658L491.393 145.022C491.833 142.649 492.05 140.07 492.05 137.288H490.05ZM490.41 143.84H446.122V145.84H490.41V143.84ZM445.129 144.959C445.921 151.557 448.446 156.719 452.778 160.328L454.058 158.792C450.198 155.575 447.859 150.923 447.115 144.721L445.129 144.959ZM452.778 160.328C457.095 163.926 462.716 165.68 469.546 165.68V163.68C463.064 163.68 457.933 162.021 454.058 158.792L452.778 160.328ZM469.546 165.68C476.928 165.68 482.95 164.161 487.52 161.025L486.388 159.375C482.254 162.212 476.671 163.68 469.546 163.68V165.68ZM485.954 160.2V169.672H487.954V160.2H485.954ZM464.554 115.168C459.419 115.168 455.023 117.027 451.422 120.718L452.854 122.114C456.08 118.807 459.961 117.168 464.554 117.168V115.168ZM451.422 120.718C447.802 124.428 445.738 129.663 445.126 136.3L447.118 136.484C447.701 130.151 449.647 125.401 452.854 122.114L451.422 120.718ZM446.122 137.392H480.938V135.392H446.122V137.392ZM481.938 136.392V133.832H479.938V136.392H481.938ZM481.938 133.832C481.938 128.272 480.433 123.741 477.322 120.355L475.85 121.709C478.541 124.638 479.938 128.64 479.938 133.832H481.938ZM477.331 120.365C474.206 116.873 469.903 115.168 464.554 115.168V117.168C469.445 117.168 473.163 118.706 475.841 121.699L477.331 120.365ZM557.669 173V174H558.669V173H557.669ZM547.557 173H546.557V174H547.557V173ZM543.845 120.136L543.114 120.818L543.126 120.831L543.138 120.843L543.845 120.136ZM521.701 121.928L520.978 121.237L520.969 121.246L521.701 121.928ZM516.453 173V174H517.453V173H516.453ZM506.469 173H505.469V174H506.469V173ZM506.469 108.104V107.104H505.469V108.104H506.469ZM516.453 108.104H517.453V107.104H516.453V108.104ZM516.453 119.368H515.453L517.357 119.796L516.453 119.368ZM557.669 172H547.557V174H557.669V172ZM548.557 173V131.016H546.557V173H548.557ZM548.557 131.016C548.557 126.071 547.274 122.151 544.552 119.429L543.138 120.843C545.365 123.07 546.557 126.403 546.557 131.016H548.557ZM544.576 119.454C541.974 116.665 538.538 115.296 534.373 115.296V117.296C538.058 117.296 540.938 118.487 543.114 120.818L544.576 119.454ZM534.373 115.296C529.216 115.296 524.736 117.3 520.978 121.238L522.424 122.618C525.834 119.047 529.802 117.296 534.373 117.296V115.296ZM520.969 121.246C517.252 125.236 515.453 130.713 515.453 137.544H517.453C517.453 131.063 519.153 126.129 522.433 122.61L520.969 121.246ZM515.453 137.544V173H517.453V137.544H515.453ZM516.453 172H506.469V174H516.453V172ZM507.469 173V108.104H505.469V173H507.469ZM506.469 109.104H516.453V107.104H506.469V109.104ZM515.453 108.104V119.368H517.453V108.104H515.453ZM517.357 119.796C519.203 115.898 521.743 113.02 524.964 111.108C528.19 109.192 532.164 108.208 536.933 108.208V106.208C531.889 106.208 527.543 107.25 523.942 109.388C520.336 111.529 517.543 114.731 515.549 118.94L517.357 119.796ZM536.933 108.208C543.03 108.208 547.788 110.053 551.322 113.667L552.752 112.269C548.776 108.203 543.466 106.208 536.933 106.208V108.208ZM551.322 113.667C554.86 117.285 556.669 122.136 556.669 128.328H558.669C558.669 121.72 556.724 116.331 552.752 112.269L551.322 113.667ZM556.669 128.328V173H558.669V128.328H556.669ZM594.154 136.648L595.1 136.972L595.101 136.97L594.154 136.648ZM592.49 141.512L591.544 141.188L591.091 142.512H592.49V141.512ZM623.082 141.512V142.512H624.469L624.031 141.196L623.082 141.512ZM621.418 136.52L620.467 136.828L620.469 136.836L621.418 136.52ZM607.978 95.048L608.929 94.7397L607.907 91.5838L607.015 94.7792L607.978 95.048ZM581.866 173V174H582.583L582.813 173.321L581.866 173ZM570.73 173L569.786 172.671L569.322 174H570.73V173ZM600.81 86.728V85.728H600.1L599.866 86.3988L600.81 86.728ZM615.146 86.728L616.092 86.4038L615.86 85.728H615.146V86.728ZM644.714 173V174H646.114L645.66 172.676L644.714 173ZM633.578 173L632.629 173.316L632.857 174H633.578V173ZM626.026 150.344L626.975 150.028L626.747 149.344H626.026V150.344ZM589.546 150.344V149.344H588.829L588.599 150.023L589.546 150.344ZM593.208 136.324L591.544 141.188L593.436 141.836L595.1 136.972L593.208 136.324ZM592.49 142.512H623.082V140.512H592.49V142.512ZM624.031 141.196L622.367 136.204L620.469 136.836L622.133 141.828L624.031 141.196ZM622.369 136.212L608.929 94.7397L607.027 95.3563L620.467 136.828L622.369 136.212ZM607.015 94.7792C606 98.4138 601.406 112.244 593.207 136.326L595.101 136.97C603.286 112.924 607.908 99.0209 608.941 95.3168L607.015 94.7792ZM581.866 172H570.73V174H581.866V172ZM571.674 173.329L601.754 87.0572L599.866 86.3988L569.786 172.671L571.674 173.329ZM600.81 87.728H615.146V85.728H600.81V87.728ZM614.2 87.0522L643.768 173.324L645.66 172.676L616.092 86.4038L614.2 87.0522ZM644.714 172H633.578V174H644.714V172ZM634.527 172.684L626.975 150.028L625.077 150.66L632.629 173.316L634.527 172.684ZM626.026 149.344H589.546V151.344H626.026V149.344ZM588.599 150.023L580.919 172.679L582.813 173.321L590.493 150.665L588.599 150.023ZM670.242 173V174H671.242V173H670.242ZM659.874 173H658.874V174H659.874V173ZM659.874 86.728V85.728H658.874V86.728H659.874ZM670.242 86.728H671.242V85.728H670.242V86.728ZM670.242 172H659.874V174H670.242V172ZM660.874 173V86.728H658.874V173H660.874ZM659.874 87.728H670.242V85.728H659.874V87.728ZM669.242 86.728V173H671.242V86.728H669.242Z" fill="black"/>
</svg>
