<svg width="671" height="256" viewBox="0 0 671 256" fill="none" xmlns="http://www.w3.org/2000/svg">
<path d="M239.184 104.758C242.086 96.1379 243.09 87.0063 242.128 77.9732C241.166 68.9401 238.262 60.2134 233.608 52.3761C226.708 40.53 216.174 31.1512 203.522 25.5917C190.87 20.0323 176.756 18.5795 163.214 21.4429C155.52 13.0009 145.709 6.70448 134.768 3.18599C123.826 -0.332497 112.139 -0.949171 100.879 1.39791C89.6198 3.74498 79.1846 8.97317 70.6217 16.5574C62.0588 24.1416 55.6697 33.8148 52.0962 44.6055C43.0741 46.4304 34.5507 50.1339 27.0958 55.4683C19.6408 60.8027 13.426 67.6453 8.86669 75.5387C1.8923 87.3651 -1.08851 101.073 0.355208 114.68C1.79893 128.288 7.59237 141.09 16.898 151.236C13.9855 159.851 12.9718 168.981 13.9247 178.015C14.8777 187.048 17.7753 195.777 22.4237 203.616C29.3319 215.467 39.876 224.848 52.5364 230.407C65.1969 235.966 79.3199 237.417 92.87 234.551C98.9825 241.34 106.493 246.766 114.901 250.464C123.308 254.163 132.419 256.05 141.624 255.999C155.505 256.012 169.031 251.673 180.249 243.61C191.467 235.546 199.798 224.175 204.038 211.137C213.059 209.309 221.581 205.604 229.036 200.27C236.49 194.936 242.706 188.094 247.268 180.203C254.16 168.394 257.089 154.738 255.637 141.187C254.185 127.637 248.427 114.885 239.184 104.758ZM141.624 239.244C130.256 239.262 119.244 235.331 110.52 228.142L112.054 227.284L163.725 197.864C165.011 197.12 166.079 196.059 166.823 194.784C167.568 193.51 167.963 192.067 167.971 190.597V118.736L189.815 131.201C189.923 131.255 190.016 131.334 190.088 131.43C190.159 131.527 190.207 131.638 190.226 131.756V191.304C190.198 204.01 185.069 216.188 175.96 225.173C166.852 234.158 154.506 239.217 141.624 239.244ZM37.1572 195.24C31.456 185.529 29.409 174.146 31.3763 163.094L32.9118 164.002L84.6332 193.423C85.913 194.164 87.37 194.554 88.8538 194.554C90.3376 194.554 91.7946 194.164 93.0743 193.423L156.256 157.493V182.371C156.25 182.5 156.215 182.626 156.153 182.74C156.09 182.854 156.003 182.952 155.897 183.027L103.561 212.801C92.3923 219.148 79.1264 220.863 66.6763 217.571C54.2262 214.278 43.6095 206.247 37.1572 195.24ZM23.5494 84.2192C29.2902 74.4461 38.3514 66.9919 49.129 63.1761V123.733C49.1095 125.196 49.4885 126.637 50.2263 127.906C50.9641 129.176 52.0337 130.226 53.3236 130.949L116.198 166.728L94.3536 179.192C94.2354 179.254 94.1036 179.286 93.9697 179.286C93.8359 179.286 93.704 179.254 93.5858 179.192L41.3529 149.469C30.2048 143.095 22.0717 132.623 18.7348 120.346C15.3979 108.069 17.1292 94.9879 23.5494 83.9675V84.2192ZM203.015 125.348L139.936 89.2155L161.73 76.7995C161.848 76.7376 161.98 76.7052 162.114 76.7052C162.248 76.7052 162.379 76.7376 162.498 76.7995L214.731 106.573C222.717 111.119 229.228 117.812 233.503 125.87C237.777 133.929 239.64 143.021 238.873 152.085C238.106 161.148 234.741 169.81 229.171 177.058C223.601 184.306 216.055 189.841 207.415 193.018V132.461C207.37 131.001 206.94 129.577 206.169 128.33C205.397 127.082 204.311 126.055 203.015 125.348ZM224.758 93.1013L223.222 92.1925L171.604 62.5201C170.316 61.7747 168.85 61.3818 167.357 61.3818C165.864 61.3818 164.398 61.7747 163.111 62.5201L99.9821 98.4496V73.5718C99.9686 73.4453 99.9901 73.3176 100.044 73.2021C100.098 73.0866 100.183 72.9877 100.289 72.9158L152.522 43.1921C160.528 38.643 169.681 36.4363 178.911 36.8301C188.141 37.2239 197.067 40.202 204.644 45.416C212.221 50.6299 218.137 57.8643 221.699 66.2729C225.261 74.6816 226.323 83.9169 224.759 92.8987L224.758 93.1013ZM88.0601 137.205L66.2166 124.791C66.1073 124.726 66.0139 124.638 65.9429 124.534C65.8718 124.429 65.825 124.31 65.8057 124.186V64.791C65.8177 55.6793 68.4592 46.7592 73.4212 39.0737C78.3832 31.3883 85.4608 25.255 93.8263 21.391C102.192 17.527 111.5 16.0921 120.662 17.2539C129.823 18.4156 138.461 22.1262 145.564 27.9517L144.028 28.8103L92.3585 58.2289C91.0725 58.9729 90.0048 60.034 89.2603 61.3082C88.5157 62.5823 88.12 64.0255 88.112 65.4961L88.0601 137.205ZM99.9291 111.974L128.066 95.976L156.256 111.974V143.967L128.169 159.964L99.981 143.967L99.9291 111.974Z" fill="white"/>
<path d="M351.584 129.48C351.584 143.048 348.085 153.885 341.088 161.992C334.176 170.013 324.789 174.024 312.928 174.024C301.237 174.024 291.851 169.971 284.768 161.864C277.685 153.757 274.144 142.963 274.144 129.48C274.144 115.912 277.6 105.117 284.512 97.096C291.509 89.0747 300.939 85.064 312.8 85.064C324.917 85.064 334.389 89.0747 341.216 97.096C348.128 105.032 351.584 115.827 351.584 129.48ZM285.024 129.48C285.024 140.147 287.541 148.595 292.576 154.824C297.696 161.053 304.48 164.168 312.928 164.168C321.717 164.168 328.501 161.096 333.28 154.952C338.144 148.808 340.576 140.317 340.576 129.48C340.576 118.643 338.144 110.152 333.28 104.008C328.416 97.864 321.589 94.792 312.8 94.792C304.096 94.792 297.269 97.9067 292.32 104.136C287.456 110.28 285.024 118.728 285.024 129.48ZM376.953 198.216H366.969V108.104H376.953V117.96C381.476 110.707 388.174 107.08 397.049 107.08C405.668 107.08 412.409 110.237 417.273 116.552C422.222 122.781 424.697 130.589 424.697 139.976C424.697 149.96 422.094 158.152 416.889 164.552C411.769 170.867 405.07 174.024 396.793 174.024C388.26 174.024 381.646 170.397 376.953 163.144V198.216ZM376.953 140.616C376.953 148.893 378.873 154.995 382.713 158.92C386.553 162.845 390.82 164.808 395.513 164.808C400.974 164.808 405.454 162.675 408.953 158.408C412.452 154.056 414.201 147.912 414.201 139.976C414.201 132.893 412.494 127.176 409.081 122.824C405.668 118.472 401.358 116.296 396.153 116.296C390.948 116.296 386.425 118.216 382.585 122.056C378.83 125.811 376.953 131.997 376.953 140.616ZM486.954 169.672C481.919 172.317 475.775 173.64 468.522 173.64C458.709 173.64 450.773 170.653 444.714 164.68C438.741 158.621 435.754 150.643 435.754 140.744C435.754 130.419 438.442 122.269 443.818 116.296C449.194 110.323 456.106 107.336 464.554 107.336C472.661 107.336 479.103 109.939 483.882 115.144C488.661 120.349 491.05 127.731 491.05 137.288C491.05 140.019 490.837 142.536 490.41 144.84H446.122C446.89 151.24 449.322 156.147 453.418 159.56C457.514 162.973 462.89 164.68 469.546 164.68C476.799 164.68 482.602 163.187 486.954 160.2V169.672ZM464.554 116.168C459.69 116.168 455.551 117.917 452.138 121.416C448.725 124.915 446.719 129.907 446.122 136.392H480.938V133.832C480.938 128.456 479.487 124.189 476.586 121.032C473.685 117.789 469.674 116.168 464.554 116.168ZM557.669 173H547.557V131.016C547.557 126.237 546.32 122.611 543.845 120.136C541.456 117.576 538.298 116.296 534.373 116.296C529.509 116.296 525.285 118.173 521.701 121.928C518.202 125.683 516.453 130.888 516.453 137.544V173H506.469V108.104H516.453V119.368C520.293 111.261 527.12 107.208 536.933 107.208C543.248 107.208 548.282 109.128 552.037 112.968C555.792 116.808 557.669 121.928 557.669 128.328V173ZM594.154 136.648L592.49 141.512H623.082L621.418 136.52L607.978 95.048C606.954 98.7173 602.346 112.584 594.154 136.648ZM581.866 173H570.73L600.81 86.728H615.146L644.714 173H633.578L626.026 150.344H589.546L581.866 173ZM670.242 173H659.874V86.728H670.242V173Z" fill="white"/>
</svg>
