<svg fill="#ffffff" height="200px" width="200px" version="1.1" id="Layer_1" xmlns="http://www.w3.org/2000/svg" xmlns:xlink="http://www.w3.org/1999/xlink" viewBox="0 0 485 485" xml:space="preserve" stroke="#ffffff"><g id="SVGRepo_bgCarrier" stroke-width="0"></g><g id="SVGRepo_tracerCarrier" stroke-linecap="round" stroke-linejoin="round"></g><g id="SVGRepo_iconCarrier"> <g> <polygon points="30,30 106,30 106,0 0,0 0,106 30,106 "></polygon> <polygon points="379,0 379,30 455,30 455,106 485,106 485,0 "></polygon> <polygon points="455,455 379,455 379,485 485,485 485,379 455,379 "></polygon> <polygon points="30,379 0,379 0,485 106,485 106,455 30,455 "></polygon> <path d="M274.405,175c26.191,0,47.5-21.309,47.5-47.5S300.597,80,274.405,80s-47.5,21.309-47.5,47.5S248.214,175,274.405,175z"></path> <polygon points="80,405 405,405 405,308.18 346.358,246.304 275.241,287.672 176.238,216.922 80,318.465 "></polygon> </g> </g></svg>